<?xml version="1.0" standalone="no"?><!DOCTYPE svg PUBLIC "-//W3C//DTD SVG 1.1//EN" "http://www.w3.org/Graphics/SVG/1.1/DTD/svg11.dtd"><svg t="1640141917819" class="icon" viewBox="0 0 1024 1024" version="1.1" xmlns="http://www.w3.org/2000/svg" p-id="1130" xmlns:xlink="http://www.w3.org/1999/xlink" width="200" height="200"><defs><style type="text/css"></style></defs><path d="M423.5776 777.408512c0 10.06592-8.267776 18.325504-18.374656 18.325504H102.976512c-10.113024 0-18.3808-8.25344-18.3808-18.325504V709.50912c0-10.082304 8.267776-18.331648 18.3808-18.331648h302.221312c10.112 0 18.37568 8.249344 18.37568 18.331648v67.899392h0.00512z m578.82112-357.285888H16.320512C0 420.122624 0 433.042432 0 433.042432v399.481856c0 28.429312 23.328768 51.689472 51.838976 51.689472h920.322048c28.509184 0 51.838976-23.26016 51.838976-51.689472V441.1904c0.00512 0 0-21.0688-21.60128-21.0688zM15.804416 310.142976h993.23904c14.9504 0 14.9504-11.516928 14.9504-11.516928V192.996352c0-28.424192-23.328768-51.684352-51.843072-51.684352H51.838976C23.328768 141.312 0 164.57216 0 192.996352v98.504704c0 18.64192 15.804416 18.64192 15.804416 18.64192z" p-id="1131"></path></svg>