<?xml version="1.0" standalone="no"?><!DOCTYPE svg PUBLIC "-//W3C//DTD SVG 1.1//EN" "http://www.w3.org/Graphics/SVG/1.1/DTD/svg11.dtd"><svg t="1640138975992" class="icon" viewBox="0 0 1024 1024" version="1.1" xmlns="http://www.w3.org/2000/svg" p-id="648" xmlns:xlink="http://www.w3.org/1999/xlink" width="200" height="200"><defs><style type="text/css"></style></defs><path d="M912 192H736V138.56a48 48 0 1 0-96 0V192h-256V144a48 48 0 0 0-96 0V192H112A48 48 0 0 0 64 240v608A48 48 0 0 0 112 896h800a48 48 0 0 0 48-48v-608A48 48 0 0 0 912 192zM489.28 765.44l-152.64-128 41.28-48.64 109.12 91.84 200.32-188.48 43.84 46.72zM864 394.56H160V288h128v16a48 48 0 0 0 96 0V288h256v10.56a48 48 0 0 0 96 0V288h128z" p-id="649"></path></svg>