<?xml version="1.0" standalone="no"?><!DOCTYPE svg PUBLIC "-//W3C//DTD SVG 1.1//EN" "http://www.w3.org/Graphics/SVG/1.1/DTD/svg11.dtd"><svg t="1640142188565" class="icon" viewBox="0 0 1024 1024" version="1.1" xmlns="http://www.w3.org/2000/svg" p-id="6918" xmlns:xlink="http://www.w3.org/1999/xlink" width="200" height="200"><defs><style type="text/css"></style></defs><path d="M912 186.56H736v-48a48 48 0 1 0-96 0v48h-256v-48a48 48 0 0 0-96 0v48H112A48 48 0 0 0 64 234.56v608a48 48 0 0 0 48 48h412.48A272 272 0 1 1 960 565.76V234.56a48 48 0 0 0-48-48zM352 714.56H160v-64h192z m0-128H160v-64h192z m512-192H160v-112h128v16a48 48 0 0 0 96 0v-16h256v16a48 48 0 0 0 96 0v-16h128z" p-id="6919"></path><path d="M736 490.56a224 224 0 1 0 224 224 224 224 0 0 0-224-224z m0 384a160 160 0 1 1 160-160 160 160 0 0 1-160 160z" p-id="6920"></path><path d="M763.84 606.72h-64v128h2.56l88.32 88 45.12-45.12-72-72v-98.88z" p-id="6921"></path></svg>