<?xml version="1.0" standalone="no"?><!DOCTYPE svg PUBLIC "-//W3C//DTD SVG 1.1//EN" "http://www.w3.org/Graphics/SVG/1.1/DTD/svg11.dtd"><svg t="1641363572979" class="icon" viewBox="0 0 1025 1024" version="1.1" xmlns="http://www.w3.org/2000/svg" p-id="892" xmlns:xlink="http://www.w3.org/1999/xlink" width="200.1953125" height="200"><defs><style type="text/css"></style></defs><path d="M211.451 532.324h298.54v126.044h42.452V532.319h254.726c70.942 0 84.91 42.204 84.91 126.049h41.098v-84.91c5.503-41.393-23.597-79.414-64.99-84.916a75.679 75.679 0 0 0-19.96 0.005H552.401v-84.905H509.95v84.91l-323.972 0.51c-56.875 2.853-101.304 50.176-100.576 107.112v62.194h41.139c0-64.868-4.244-126.003 84.91-126.044z m178.563-213.592h280.877c29.07-1.6 51.393-26.37 49.967-55.45V119.45C722.279 90.369 699.955 65.6 670.89 64H390.014c-29.044 1.62-51.332 26.39-49.885 55.449v143.839c-1.447 29.054 20.836 53.824 49.885 55.444zM217.264 723.2H38.405c-24.8 4.931-41.439 28.366-37.913 53.406v147.91c-3.505 25.034 13.123 48.454 37.913 53.405h178.859c24.795-4.951 41.434-28.366 37.954-53.406V776.606c3.505-25.045-13.149-48.475-37.954-53.406z m384.05 0H422.41c-24.815 4.911-41.46 28.361-37.913 53.406v147.91c-3.505 25.034 13.123 48.454 37.913 53.405h178.905c24.79-4.951 41.413-28.37 37.913-53.406V776.606c3.52-25.04-13.113-48.475-37.913-53.406z m421.904 53.406c3.526-25.05-13.134-48.495-37.954-53.406H806.405c-24.8 4.931-41.439 28.366-37.913 53.406v147.91c-3.505 25.034 13.123 48.454 37.913 53.405h178.859c24.805-4.93 41.454-28.36 37.954-53.406V776.606z m-63.432 37.332c1.765-12.542-6.576-24.28-19.002-26.738h-89.546c-12.416 2.47-20.746 14.202-18.981 26.738v74.05c-1.755 12.534 6.57 24.259 18.981 26.738h89.546c12.419-2.469 20.754-14.199 19.002-26.738v-74.05z m-384 0c1.765-12.542-6.576-24.28-19.002-26.738h-89.546c-12.416 2.47-20.746 14.202-18.981 26.738v74.05c-1.755 12.534 6.57 24.259 18.981 26.738h89.546c12.419-2.469 20.754-14.199 19.002-26.738v-74.05z m-384 0c1.765-12.542-6.576-24.28-19.002-26.738H83.238c-12.416 2.47-20.746 14.202-18.981 26.738v74.05c-1.755 12.534 6.57 24.259 18.981 26.738h89.546c12.419-2.469 20.754-14.199 19.002-26.738v-74.05z" p-id="893"></path></svg>