<?xml version="1.0" standalone="no"?><!DOCTYPE svg PUBLIC "-//W3C//DTD SVG 1.1//EN" "http://www.w3.org/Graphics/SVG/1.1/DTD/svg11.dtd"><svg t="1640142500938" class="icon" viewBox="0 0 1024 1024" version="1.1" xmlns="http://www.w3.org/2000/svg" p-id="852" xmlns:xlink="http://www.w3.org/1999/xlink" width="200" height="200"><defs><style type="text/css"></style></defs><path d="M392 801.92l38.08-47.36 50.24-64L522.56 640l50.24 44.8 87.68 78.4 201.28-199.68 12.8-12.8V119.04a48 48 0 0 0-48-48h-640a48 48 0 0 0-48 48v768a48 48 0 0 0 48 48h354.88l-104-92.8zM314.56 311.36h320v64h-320z m0 128h192v64h-192z" p-id="853"></path><path d="M906.56 608l-243.84 241.92-132.48-118.08L480 794.56 665.6 960l294.4-292.16L906.56 608z" p-id="854"></path></svg>