<?xml version="1.0" standalone="no"?><!DOCTYPE svg PUBLIC "-//W3C//DTD SVG 1.1//EN" "http://www.w3.org/Graphics/SVG/1.1/DTD/svg11.dtd"><svg t="1640141742174" class="icon" viewBox="0 0 1024 1024" version="1.1" xmlns="http://www.w3.org/2000/svg" p-id="828" xmlns:xlink="http://www.w3.org/1999/xlink" width="200" height="200"><defs><style type="text/css"></style></defs><path d="M418.56 721.28a243.52 243.52 0 0 1 243.2-243.52 239.36 239.36 0 0 1 148.8 51.2V119.04a48 48 0 0 0-48-48h-640a48 48 0 0 0-48 48v768a48 48 0 0 0 48 48H544a244.16 244.16 0 0 1-125.44-213.76zM250.56 311.36h320v64h-320z m0 128h192v64h-192z" p-id="829"></path><path d="M822.08 801.6a181.12 181.12 0 1 0-38.4 50.88l103.68 77.76 38.08-51.2z m-160 35.2a115.52 115.52 0 1 1 115.52-115.52 115.52 115.52 0 0 1-115.84 115.52z" p-id="830"></path></svg>