<?xml version="1.0" standalone="no"?><!DOCTYPE svg PUBLIC "-//W3C//DTD SVG 1.1//EN" "http://www.w3.org/Graphics/SVG/1.1/DTD/svg11.dtd"><svg t="1644915025705" class="icon" viewBox="0 0 1024 1024" version="1.1" xmlns="http://www.w3.org/2000/svg" p-id="2669" xmlns:xlink="http://www.w3.org/1999/xlink" width="200" height="200"><defs><style type="text/css"></style></defs><path d="M891.9 800.5h-36.1V565.9c0-59.8-48.5-108.3-108.3-108.3h-36.1v342.8h-36.1V295.3c0-79.7-64.6-144.3-144.3-144.3H296.5c-79.7 0-144.3 64.6-144.3 144.3v505.2h-18c-19.9 0-36.1 16.2-36.1 36.1s16.2 36.1 36.1 36.1H892c19.9 0 36.1-16.2 36.1-36.1s-16.3-36.1-36.2-36.1zM314.5 331.4h72.2v-72.2h54.1v72.2H513v54.1h-72.2v72.2h-54.1v-72.2h-72.2v-54.1z m270.7 378.9H242.3v-36.1h342.8v36.1z m0-108.3H242.3v-36.1h342.8V602z" p-id="2670"></path></svg>