<?xml version="1.0" standalone="no"?><!DOCTYPE svg PUBLIC "-//W3C//DTD SVG 1.1//EN" "http://www.w3.org/Graphics/SVG/1.1/DTD/svg11.dtd"><svg t="1642576474484" class="icon" viewBox="0 0 1084 1024" version="1.1" xmlns="http://www.w3.org/2000/svg" p-id="1021" xmlns:xlink="http://www.w3.org/1999/xlink" width="211.71875" height="200"><defs><style type="text/css"></style></defs><path d="M433.498395 850.441229a332.76788 332.76788 0 1 0 216.226892-629.431313 332.76788 332.76788 0 1 0-216.226892 629.431313Z" fill="#E9EAEB" p-id="1022"></path><path d="M594.870765 794.017566v-51.392723s51.392723-30.835634 51.392723-89.937265v-231.267252l-210.710163-25.696361-82.228356 66.810539c-17.987453 16.702635-28.265997 41.114178-28.265998 65.525722v264.672522h269.811794z" fill="#FFFFFF" p-id="1023"></path><path d="M607.718946 806.865747h-295.508156V529.345044c0-28.265997 11.563363-56.531995 32.120452-75.804266l87.367629-70.664994L659.111669 411.141782v242.830614c0 52.677541-35.974906 86.082811-51.392723 96.361356v56.531995z m-269.811794-25.696362h244.115433v-46.25345l6.42409-3.854454c1.284818-1.284818 44.968632-28.265997 44.968632-78.373903V432.983689l-194.007528-23.126725-78.373902 64.240903c-15.417817 14.132999-24.411543 34.690088-24.411543 56.531995l1.284818 250.539523z" fill="#2A5082" p-id="1024"></path><path d="M440.692597 190.153074v385.44542l38.544542 38.544542h256.963614c14.132999 0 25.696361-11.563363 25.696361-25.696361v-398.293601h-321.204517z" fill="#A3D4FF" p-id="1025"></path><path d="M299.36261 794.017566h308.356336v89.937265h-308.356336z" fill="#E9EAEB" p-id="1026"></path><path d="M620.567127 883.954831h-25.696362v-77.089084h-282.659975v77.089084h-25.696361v-102.785446h334.052698z" fill="#2A5082" p-id="1027"></path><path d="M337.907152 819.713927h38.544542v25.696362h-38.544542zM427.844417 190.153074h25.696361v385.44542h-25.696361zM736.200753 626.991217h-256.963614v-25.696361h256.963614c7.708908 0 12.848181-5.139272 12.848181-12.848181v-398.293601h25.696361v398.293601c0 21.841907-17.987453 38.544542-38.544542 38.544542z" fill="#2A5082" p-id="1028"></path><path d="M620.567127 190.153074h77.089084v423.989962h-77.089084z" fill="#FFFFFF" p-id="1029"></path><path d="M710.504391 626.991217h-102.785445v-449.686324h102.785445v449.686324z m-77.089084-25.696361h51.392723v-398.293601h-51.392723v398.293601zM556.326223 190.153074h25.696362v64.240903h-25.696362zM556.326223 280.090339h25.696362v51.392722h-25.696362z" fill="#2A5082" p-id="1030"></path><path d="M534.484316 425.27478c-29.550816 29.550816-146.46926 143.899624-146.46926 143.899624l102.785446 133.621079s43.683814-52.677541 14.132999-116.918444c0 0 51.392723-57.816813 64.240903-75.804266 29.550816-42.398996-5.139272-114.348808-34.690088-84.797993z" fill="#FFFFFF" p-id="1031"></path><path d="M501.079046 710.504391L481.806775 693.801757c1.284818-1.284818 37.259724-47.538269 12.848181-104.070264l-3.854454-7.708908 5.139272-6.424091s51.392723-57.816813 64.240904-74.519448c15.417817-21.841907 6.42409-59.101631-6.424091-69.380175-3.854454-2.569636-5.139272-3.854454-10.278544 1.284818C513.927227 463.819322 398.293601 576.883312 397.008783 578.16813l-17.987453-17.987452c1.284818-1.284818 116.918444-114.348808 146.46926-143.899624 12.848181-12.848181 30.835634-14.132999 44.968632-2.569636 23.126725 19.272271 33.40527 70.664994 10.278545 104.070263-10.278545 15.417817-46.25345 55.247177-60.38645 70.664994 25.696361 66.81054-17.987453 119.48808-19.272271 122.057716zM838.986198 254.393977h-38.544542v-25.696361h38.544542c7.708908 0 12.848181-5.139272 12.848181-12.848181v-51.392722c0-7.708908-5.139272-12.848181-12.848181-12.848181h-475.382685c-7.708908 0-12.848181 5.139272-12.848181 12.848181v51.392722c0 7.708908 5.139272 12.848181 12.848181 12.848181h38.544542v25.696361h-38.544542c-21.841907 0-38.544542-16.702635-38.544542-38.544542v-51.392722c0-21.841907 16.702635-38.544542 38.544542-38.544542h475.382685c21.841907 0 38.544542 16.702635 38.544542 38.544542v51.392722c0 21.841907-17.987453 38.544542-38.544542 38.544542z" fill="#2A5082" p-id="1032"></path><path d="M389.299875 177.304893h423.989962v25.696362h-423.989962z" fill="#2A5082" p-id="1033"></path></svg>