<?xml version="1.0" standalone="no"?><!DOCTYPE svg PUBLIC "-//W3C//DTD SVG 1.1//EN" "http://www.w3.org/Graphics/SVG/1.1/DTD/svg11.dtd"><svg t="1641434353520" class="icon" viewBox="0 0 1024 1024" version="1.1" xmlns="http://www.w3.org/2000/svg" p-id="10707" xmlns:xlink="http://www.w3.org/1999/xlink" width="200" height="200"><defs><style type="text/css"></style></defs><path d="M688.008 519.293c-72.664 0-136.566-45.642-145.164-86.451-5.8-27.469-2.952-245.94-0.854-271.62 1.497-18.343 17.685-32.073 35.913-30.495 18.343 1.497 31.993 17.578 30.496 35.913-2.612 31.993-3.522 222.969-0.439 251.455 5.051 8.346 34.399 34.562 80.049 34.562 18.4 0 33.318 14.919 33.318 33.318s-14.92 33.318-33.319 33.318z m-79.846-99.58h0.17-0.17z m-272.018 95.895c-18.4 0-33.318-14.919-33.318-33.318s14.919-33.317 33.318-33.317c49.244 0 79.017-25.574 79.455-33.701 0.952-17.578-1.09-89.526-2.733-147.336-1.382-48.61-2.578-90.583-2.253-104.77 0.423-18.4 15.854-33.09 34.074-32.545 18.392 0.422 32.968 15.675 32.545 34.074-0.284 12.47 0.943 55.638 2.237 101.345 2.204 77.593 3.693 133.973 2.668 152.843-2.887 53.337-68.385 96.725-145.993 96.725z" p-id="10708"></path><path d="M167.275 893.397c-12.274 0-24.151-2.148-35.319-6.491-27.323-10.614-47.276-33.505-56.176-64.447C21.281 633.085 143.897 353.33 249.781 277.99c53.735-38.215 92.812-22.011 111.325-8.972 43.364 30.568 65.758 86.883 72.623 182.607 1.311 18.359-12.502 34.302-30.854 35.62-18.514 1.253-34.294-12.494-35.62-30.854-5.149-71.939-19.726-115.41-44.543-132.906-7.321-5.182-18.872-2.188-34.303 8.793-88.777 63.171-193.677 315.09-148.597 471.749 3.107 10.794 8.581 17.781 16.276 20.774 11.656 4.499 29.169 0.781 46.838-10.045 37.035-22.671 81.237-22.671 116.751-22.671 13.372 0 32.944 0 40.81-2.334 4.222-13.756 4.449-53.426 4.645-85.752 0.162-28.462 0.35-60.724 2.326-94.847 1.057-18.375 16.618-32.562 35.188-31.333 18.368 1.065 32.399 16.822 31.334 35.189-1.879 32.382-2.058 63.724-2.221 91.372-0.325 56.622-0.545 94.024-12.982 118.395-18.359 35.945-61.251 35.945-99.1 35.945-28.56 0-60.934 0-81.969 12.868-23.596 14.448-47.706 21.809-70.433 21.809z m689.454 0c-22.728 0-46.838-7.361-70.427-21.808-21.035-12.868-53.409-12.868-81.977-12.868-37.841 0-80.741 0-99.092-35.938-12.341-24.167-12.543-60.95-12.845-116.621-0.154-27.566-0.326-58.811-2.245-91.186-1.09-18.367 12.925-34.14 31.292-35.229 18.107-1.22 34.132 12.909 35.222 31.293 2.033 34.155 2.212 66.351 2.358 94.756 0.18 31.618 0.392 70.41 4.507 83.962 7.874 2.326 27.445 2.326 40.802 2.326 35.514 0 79.715 0 116.759 22.67 17.667 10.819 35.157 14.545 46.821 10.046 7.695-2.993 13.178-9.979 16.285-20.774 45.081-156.658-59.819-408.578-148.598-471.74-15.455-10.989-27.006-13.975-34.311-8.802-24.988 17.627-39.614 61.698-44.673 134.729-1.27 18.367-17.229 32.171-35.539 30.935-18.358-1.269-32.211-17.188-30.935-35.538 6.72-96.92 29.153-153.844 72.753-184.583 18.53-13.056 57.591-29.268 111.326 8.964 105.892 75.34 228.492 355.095 174.009 544.469-8.915 30.951-28.86 53.841-56.191 64.456-11.158 4.334-23.034 6.481-35.301 6.481z" p-id="10709"></path><path d="M704.672 654.301c-83.751 0-147.012-17.058-191.872-51.946-44.991 30.513-114.458 48.439-193.312 48.439v-83.295c92.413 0 146.953-28.129 161.067-47.04l6.446-8.636c13.049-17.478 39.092-17.911 52.716-0.88l6.732 8.416c10.217 12.771 41.313 51.645 158.221 51.645l0.002 83.297z" p-id="10710"></path></svg>