<?xml version="1.0" standalone="no"?><!DOCTYPE svg PUBLIC "-//W3C//DTD SVG 1.1//EN" "http://www.w3.org/Graphics/SVG/1.1/DTD/svg11.dtd"><svg t="1641434303118" class="icon" viewBox="0 0 1024 1024" version="1.1" xmlns="http://www.w3.org/2000/svg" p-id="9129" xmlns:xlink="http://www.w3.org/1999/xlink" width="200" height="200"><defs><style type="text/css"></style></defs><path d="M561.5 852.654c-15.314 0-31.085-0.912-47.404-2.766-122.365-13.947-192.529-35.643-234.555-72.533-13.609-11.191-15.57-31.297-4.377-44.907 11.189-13.61 31.297-15.571 44.91-4.38 0.521 0.43 1.029 0.876 1.522 1.338 40.294 35.369 133.276 49.529 199.702 57.097 201.736 23.216 310.887-129.872 329.785-291.683 15.559-133.428-61.592-217.232-139.018-251.206-65.969-28.959-132.728-22.485-166.063 16.227a31.969 31.969 0 0 1-37.164 8.327c-20.117-8.936-49.59-40.414-21.179-150.566 4.405-17.06 21.804-27.318 38.863-22.912 17.06 4.405 27.318 21.805 22.913 38.865a302.724 302.724 0 0 0-9.238 50.501c53.6-29.17 126.865-29.84 197.484 1.124 93.803 41.144 196.389 148.865 176.757 317.025C894.143 676.748 775.543 852.654 561.5 852.654z" p-id="9130"></path><path d="M407.135 954.086a26.209 26.209 0 0 1-2.643-0.122C158.694 933.848 107.129 829.105 107.129 744.78c0-112.793 105.594-182.075 181.285-182.075 32.424 0 58.039 4.801 82.805 9.449 21.787 4.073 42.359 7.932 66.334 8.023 5.864-0.121 52.873-0.548 69.525-61.291 18.264-57.521-15.072-105.441-28.563-115.621-2.825-2.127-7.323-4.711-12.823-8.021-40.415-24.248-135.008-81.103-135.008-197.635 0-33.455 6.168-70.984 17.35-105.686 5.059-16.88 22.843-26.463 39.723-21.406 16.879 5.059 26.463 22.842 21.405 39.722-0.128 0.43-0.268 0.857-0.415 1.284a287.62 287.62 0 0 0-14.281 86.086c0 80.434 67.732 121.092 104.074 142.971 7.961 4.769 14.313 8.689 18.354 11.758 36.858 27.773 77.15 103.436 51.354 184.629-24.188 88.547-97.207 108.785-132.456 106.961-28.261-0.029-52.69-4.619-76.331-9.055-22.911-4.314-44.547-8.356-71.045-8.356-33.453 0-117.474 35.188-117.474 118.264 0 83.626 80.344 132.608 238.78 145.583 17.569 1.329 30.736 16.649 29.41 34.22-1.265 16.71-15.237 29.596-31.997 29.502z" p-id="9131"></path></svg>