<?xml version="1.0" standalone="no"?><!DOCTYPE svg PUBLIC "-//W3C//DTD SVG 1.1//EN" "http://www.w3.org/Graphics/SVG/1.1/DTD/svg11.dtd"><svg t="1652771230658" class="icon" viewBox="0 0 1024 1024" version="1.1" xmlns="http://www.w3.org/2000/svg" p-id="3095" xmlns:xlink="http://www.w3.org/1999/xlink" width="200" height="200"><defs><style type="text/css">@font-face { font-family: feedback-iconfont; src: url("//at.alicdn.com/t/font_1031158_u69w8yhxdu.woff2?t=1630033759944") format("woff2"), url("//at.alicdn.com/t/font_1031158_u69w8yhxdu.woff?t=1630033759944") format("woff"), url("//at.alicdn.com/t/font_1031158_u69w8yhxdu.ttf?t=1630033759944") format("truetype"); }
</style></defs><path d="M841.10848 189.44H182.89152A101.376 101.376 0 0 0 81.92 291.0208v436.8384A101.376 101.376 0 0 0 182.89152 829.44h658.21696A101.376 101.376 0 0 0 942.08 727.8592V291.0208A101.376 101.376 0 0 0 841.10848 189.44z m-374.20544 500.30592H174.28992a31.08864 31.08864 0 0 1 0-62.17216h292.61312a31.08864 31.08864 0 0 1 0 62.17216z m-323.51232-139.02848a30.99648 30.99648 0 0 1 30.8992-31.08864h115.4048a31.08864 31.08864 0 0 1 0 62.17216h-115.4048a30.99136 30.99136 0 0 1-30.8992-31.08352z m643.80416 74.60864h-53.38112v53.70368a30.8992 30.8992 0 1 1-61.7984 0v-53.70368h-53.38624a31.08864 31.08864 0 0 1 0-62.17728h53.38624V509.44a30.8992 30.8992 0 1 1 61.7984 0v53.7088h53.38112a31.08864 31.08864 0 0 1 0 62.17728z m62.32064-232.23808H174.28992a31.08864 31.08864 0 0 1 0-62.17728h675.2256a31.08864 31.08864 0 0 1 0 62.17728z" fill="#5288F5" p-id="3096"></path></svg>