<?xml version="1.0" standalone="no"?><!DOCTYPE svg PUBLIC "-//W3C//DTD SVG 1.1//EN" "http://www.w3.org/Graphics/SVG/1.1/DTD/svg11.dtd"><svg t="1644915083952" class="icon" viewBox="0 0 1024 1024" version="1.1" xmlns="http://www.w3.org/2000/svg" p-id="2819" xmlns:xlink="http://www.w3.org/1999/xlink" width="200" height="200"><defs><style type="text/css"></style></defs><path d="M651.3 97.5H177c-43.7 0-79 35.4-79 79v592.9c0 87.3 70.8 158.1 158.1 158.1h474.3v-751c0-43.6-35.4-79-79.1-79zM256.1 729.9h-39.5v-39.5h39.5v39.5z m0-98.8h-39.5v-39.5h39.5v39.5z m0-98.8h-39.5v-39.5h39.5v39.5z m-39.5-217.4v-39.5h59.3v-59.3h39.5v59.3h59.3v39.5h-59.3v59.3h-39.5v-59.3h-59.3z m375.4 415H315.4v-39.5H592v39.5z m0-98.8H315.4v-39.5H592v39.5z m0-98.8H315.4v-39.5H592v39.5zM888.5 532.3H769.9v395.2c87.3 0 158.1-70.8 158.1-158.1V571.8c0-21.8-17.7-39.5-39.5-39.5z" p-id="2820"></path></svg>