<?xml version="1.0" standalone="no"?><!DOCTYPE svg PUBLIC "-//W3C//DTD SVG 1.1//EN" "http://www.w3.org/Graphics/SVG/1.1/DTD/svg11.dtd"><svg t="1641434358896" class="icon" viewBox="0 0 1024 1024" version="1.1" xmlns="http://www.w3.org/2000/svg" p-id="10994" xmlns:xlink="http://www.w3.org/1999/xlink" width="200" height="200"><defs><style type="text/css"></style></defs><path d="M284.842 337.418c-8.313 17.865-29.369 25.824-47.421 17.925-17.739-7.43-26.097-27.834-18.666-45.574 0.104-0.249 0.212-0.497 0.321-0.744C290.742 150.319 395.595 67.578 531.352 67.578 724.426 67.578 863 215.134 863 401.929c0 142.151-94.919 280.497-207.651 372.676-8.906 7.612-18.002 18.116-30.485 34.672-3.769 4.947-29.801 40.723-38.326 51.836C526.1 940.087 470 981 390.685 981c-110.639 0-160.572-80.19-148.05-218.536 2.001-19.543 19.418-33.797 38.972-31.894 19.494 1.454 34.119 18.436 32.665 37.93l-0.011 0.13c-9.248 102.076 15.681 142.113 76.423 142.113 50.657 0 90.162-28.811 138.307-91.722 7.878-10.315 33.721-45.748 37.983-51.381 15.338-20.399 27.251-34.139 39.886-44.985 1.142-0.99 1.142-0.99 2.36-1.941 97.965-80.153 181.923-202.398 181.923-318.784 0-149.268-107.859-264.093-259.792-264.093-104.015-0.002-185.423 64.243-246.509 199.581z m151.514 393.038c4.604-8.639 8.259-20.248 14.729-45.481l2.055-8.069c9.325-36.346 15.985-55.528 28.431-73.834 5.442-7.993 11.722-16.366 20.818-28.05-1.218 1.56 17.583-22.341 22.835-29.153 24.473-31.856 38.821-55.034 45.938-76.119 2.855-8.602 4.301-16.365 4.301-23.33 0-38.668-25.576-62.646-58.763-62.646-22.075 0-37.07 6.013-47.803 18.078-13.223 14.641-35.681 16.14-50.732 3.387-14.611-12.312-16.475-34.137-4.163-48.749 0.229-0.271 0.462-0.54 0.7-0.805 25.081-28.164 60.019-42.17 101.999-42.17 72.313 0 130.619 54.806 130.619 132.903 0 14.843-2.702 29.876-7.84 45.214-10.162 30.295-27.897 58.84-56.785 96.404-5.48 7.193-24.586 31.475-23.14 29.61-8.258 10.58-13.701 17.888-18.078 24.357-6.317 9.249-11.303 23.597-18.648 52.027l-2.018 7.992c-19.144 74.863-34.33 103.331-85.442 103.331-34.405 0-59.449-12.636-71.208-39.771-7.308-16.746-7.955-28.354-7.232-66.604 0.152-8.601 0.229-13.397 0.229-18.954 0-32.236-9.629-66.946-29.306-104.245-8.905-17-2.343-38 14.657-46.904 0.263-0.138 0.528-0.272 0.794-0.403 17.555-8.919 39.021-2.237 48.412 15.071 24.738 46.774 37.298 92.332 37.298 136.48 0 6.09-0.039 11.228-0.229 20.21-0.418 24.015-0.037 33.111 1.256 37.107-0.875-1.75-0.152-2.245 4.986-2.283-0.916 0.043-1.029-0.148 1.33-4.601z" p-id="10995"></path></svg>