<?xml version="1.0" standalone="no"?><!DOCTYPE svg PUBLIC "-//W3C//DTD SVG 1.1//EN" "http://www.w3.org/Graphics/SVG/1.1/DTD/svg11.dtd"><svg t="1641434279644" class="icon" viewBox="0 0 1024 1024" version="1.1" xmlns="http://www.w3.org/2000/svg" p-id="8558" xmlns:xlink="http://www.w3.org/1999/xlink" width="200" height="200"><defs><style type="text/css"></style></defs><path d="M863.316 713.451C812.822 713.237 772 672.244 772 621.746c0-41.787 61.522-176.827 73.904-203.525A19.728 19.728 0 0 1 863.316 407a20.115 20.115 0 0 1 17.799 11.221c11.995 26.698 73.904 161.738 73.904 203.525 0.001 50.647-41.056 91.705-91.703 91.705z m0.066-204.613a457.43 457.43 0 0 0-34.572 97.361c-1.642 19.163 12.563 36.029 31.726 37.672 19.164 1.641 36.031-12.563 37.672-31.729a34.895 34.895 0 0 0 0-5.943 457.517 457.517 0 0 0-34.826-97.361z" p-id="8559"></path><path d="M944.817 268.864l-13.685-41.819c-11.264-34.419-43.152-57.545-79.351-57.545a83.388 83.388 0 0 0-25.977 4.154L472.477 289.13 117.025 405.446a83.475 83.475 0 0 0-31.045 18.326c-0.241 0.224-0.49 0.44-0.729 0.667-0.494 0.473-0.969 0.961-1.45 1.443-0.515 0.515-1.035 1.023-1.537 1.552-0.252 0.267-0.491 0.543-0.74 0.813a79.96 79.96 0 0 0-2.039 2.269c-0.109 0.127-0.211 0.259-0.319 0.387a82.657 82.657 0 0 0-2.26 2.771c-0.065 0.084-0.125 0.17-0.189 0.254a85.19 85.19 0 0 0-2.202 2.982c-0.144 0.205-0.276 0.417-0.418 0.623a84.288 84.288 0 0 0-1.8 2.698c-0.44 0.694-0.853 1.405-1.272 2.112-0.26 0.438-0.533 0.864-0.785 1.309-11.348 19.896-14.591 44.321-6.923 67.753l116.317 355.452c11.33 34.625 43.409 57.89 79.825 57.89a83.874 83.874 0 0 0 26.133-4.18l355.454-116.316c44.02-14.406 68.113-61.938 53.709-105.959L617.98 463.674l273.449-89.482c21.198-6.937 38.425-21.713 48.509-41.606 10.082-19.896 11.815-42.525 4.879-63.722z m-64.642 33.428c-1.154 2.277-3.934 6.372-9.585 8.222L531.987 421.316l21.363 63.506 76.775 234.618c2.744 8.385-1.846 17.439-10.23 20.184L264.443 855.94a16.03 16.03 0 0 1-4.985 0.807c-5.767 0-12.702-3.413-15.197-11.038L127.943 490.257c-2.744-8.385 1.846-17.439 10.23-20.184l708.468-232.741a16.51 16.51 0 0 1 5.14-0.832c5.947 0 13.101 3.52 15.673 11.382l13.685 41.819c1.85 5.652 0.19 10.315-0.964 12.591z" p-id="8560"></path></svg>