<?xml version="1.0" standalone="no"?><!DOCTYPE svg PUBLIC "-//W3C//DTD SVG 1.1//EN" "http://www.w3.org/Graphics/SVG/1.1/DTD/svg11.dtd"><svg t="1641434345797" class="icon" viewBox="0 0 1024 1024" version="1.1" xmlns="http://www.w3.org/2000/svg" p-id="10276" xmlns:xlink="http://www.w3.org/1999/xlink" width="200" height="200"><defs><style type="text/css"></style></defs><path d="M411.567 973.003c-13.757 0-26.712-8.388-31.915-22.011-50.19-131.709-67.197-143.831-162.557-167.792-12.005-3.019-23.394-5.403-34.065-7.638-53.707-11.297-109.249-22.978-126.865-99.471-9.729-42.202 13.131-88.498 33.307-129.35 7.388-14.982 18.191-36.867 20.326-47.089-3.001-3.985-7.07-9.254-11.604-15.132-9.771-12.655-21.493-27.871-29.997-39.894-8.98-12.705-11.981-28.671-8.237-43.819 3.735-15.082 13.756-27.73 27.512-34.724 76.034-38.618 117.403-59.853 134.578-68.823 0.316-1.708 0.616-3.526 0.884-5.103 1.65-9.663 3.918-22.91 9.07-38.468C284.876 94.421 461.34 38.329 612.758 53.335 835.626 75.478 975.84 234.425 969.971 458.26c-1.668 63.796-28.88 276.234-307.256 356.437 5.152 20.894 31.08 65.83 60.26 103.08 11.639 14.856 9.021 36.316-5.818 47.938-14.856 11.639-36.316 9.021-47.938-5.818-79.369-101.347-79.503-151.753-72.532-172.778 5.936-17.858 19.608-30.514 38.5-35.642 163.225-44.313 262.854-154.596 266.521-295 4.919-188.136-108.382-316.569-295.685-335.178-124.524-12.33-268.223 30.456-309.191 153.895-3.535 10.646-5.153 20.101-6.57 28.446-2.385 14.015-4.853 28.505-15.79 40.643-5.519 6.086-5.702 6.303-140.396 74.734 6.003 7.987 12.456 16.357 18.191 23.786 7.237 9.396 13.423 17.433 16.541 21.868 21.943 31.198 2.501 70.6-18.108 112.309-13.605 27.563-32.247 65.306-27.979 83.771 7.521 32.632 21.627 36.875 74.367 47.972 11.488 2.41 23.728 4.994 36.65 8.237 122.105 30.681 153.469 62.037 209.744 209.721 6.72 17.624-2.134 37.35-19.758 44.069a34.199 34.199 0 0 1-12.157 2.253z" p-id="10277"></path><path d="M606.289 858.502c-48.056-101.931-70.549-152.911-57.025-197.573 8.82-29.097 29.213-47.838 47.188-64.371 22.66-20.826 40.567-37.283 40.567-73.675 0-38.584-47.287-62.495-95.727-83.688-4.686-2.051-9.087-3.977-13.09-5.803-120.72-54.942-161.105-148.242-135.026-311.975l67.447 10.738c-24.162 151.752 18.759 203.984 95.859 239.075 3.719 1.693 7.82 3.485 12.189 5.395 47.754 20.893 136.645 59.776 136.645 146.258 0 66.389-36.199 99.661-62.645 123.964-13.772 12.656-24.644 22.644-28.045 33.883-6.521 21.492 21.259 80.42 53.424 148.659l-61.761 29.113z" p-id="10278"></path><path d="M351 703l-14-74c62-8 114-52 128-100l68.256 32.616C509 630 442 685 351 703z" p-id="10279"></path></svg>