<?xml version="1.0" standalone="no"?><!DOCTYPE svg PUBLIC "-//W3C//DTD SVG 1.1//EN" "http://www.w3.org/Graphics/SVG/1.1/DTD/svg11.dtd"><svg t="1641434361756" class="icon" viewBox="0 0 1024 1024" version="1.1" xmlns="http://www.w3.org/2000/svg" p-id="11136" xmlns:xlink="http://www.w3.org/1999/xlink" width="200" height="200"><defs><style type="text/css"></style></defs><path d="M225.282 873.513h-7.572c-30.291-3.786-56.794-20.823-75.726-45.435-35.969-43.542-58.687-94.654-70.046-151.449-15.145-68.15-9.465-128.73-5.679-204.456l1.894-22.718c3.785-47.329 17.038-92.762 35.969-134.411 18.931-37.862 45.435-70.045 79.511-94.655 45.435-30.291 96.549-43.543 149.557-39.758l47.328 1.896c30.29 0 60.58 17.038 81.404 43.541 35.969 43.542 58.201 121.159 62.987 232.706l2 31.227c4 70-4.154 75.698-8 118 0 11.357-2.086 19.408-5.873 28.873 0 1.893-1.894 3.787-1.894 5.679-17.038 47.329-60.579 73.833-94.655 88.978-17.037 7.572-32.183 11.36-45.435 15.146-24.611 5.679-32.183 9.464-37.862 22.718-11.359 24.609-26.504 47.326-41.649 70.045-13.252 20.822-39.756 34.073-66.259 34.073z m0.572-65.925c5.845 0 11.688-1.949 15.585-7.793 13.637-17.533 25.326-37.016 35.066-58.443v-1.949c23.377-42.859 56.495-52.598 83.769-60.391 11.689-3.896 23.377-5.845 35.066-11.689 31.169-13.637 52.599-33.118 58.443-50.65v-1.949l1.947-5.844c0-1.948 1.949-3.896 1.949-5.845C459.26 583.281 476.569 558.63 477 539c0.637-28.982-7.834-52.92-9-82.074v-5.844c-5.845-118.836-39.542-165.59-53.179-183.122-9.74-11.688-21.43-17.534-35.065-17.534h-3.896l-44.807-1.947c-40.911-1.949-77.925 7.793-112.99 29.223-23.378 15.584-42.858 38.961-56.496 68.182-17.533 33.117-27.273 70.133-29.222 109.096l-1.583 22.342c-5.843 77.924-4.261 127.662 7.427 188.054 7.792 44.806 27.273 87.667 56.495 120.784l1.948 1.947c5.845 9.74 17.534 17.532 29.222 19.481z m384.704-163.424h-7.465c-24.259-1.865-42.92-26.125-42.92-54.115v-5.6c1.867-33.59 12.108-69.047 12.108-102.635-1.867-39.188-12.849-80.244-18.447-119.431-1.866-5.599-1.866-13.063-1.866-20.526 0-48.52 19.402-93.307 54.858-121.297l3.732-1.867c20.527-14.93 46.652-20.526 70.912-18.661 27.991 1.866 55.982 5.599 83.975 9.331C903.535 228.023 965.883 278.734 971 310c1.865 24.262 7 10-17.079 84.105l-50.386 83.977-1.866 1.867c-39.188 50.384-85.841 91.438-138.092 123.162-48.518 27.991-100.769 41.053-153.019 41.053z m35.007-370.45C625.759 287.579 615 311.348 615 339.078v5.941c5.941 45.558 19.02 91.111 21 136.668 0 23.769-8.261 45.556-10.241 69.324 0 15.846 13.865 27.73 27.73 23.77 29.71-5.943 57.44-15.848 83.189-31.691 45.556-27.729 87.15-63.384 122.803-106.959l3.961-5.941c23.768-31.691 39.613-69.324 45.556-97.055 1.981-11.883-3.961-23.768-13.865-27.729-21.788-7.923-59.42-21.789-132.706-31.692-27.73-3.959-55.459-7.922-85.169-9.901-9.904 0-21.789 1.979-31.693 9.901z" p-id="11137"></path><path d="M226.165 701.08c-37.645-55.894-48.693-101.727-48.313-134.422 0.42-36.342 13.899-64.68 15.024-67.238l58.873 25.922s0.056-0.117 0.152-0.352c-0.064 0.157-10.281 21.702-9.786 46.561 1.049 52.714 15.346 60.844 37.405 93.595l-53.355 35.934z" p-id="11138"></path></svg>