<?xml version="1.0" standalone="no"?><!DOCTYPE svg PUBLIC "-//W3C//DTD SVG 1.1//EN" "http://www.w3.org/Graphics/SVG/1.1/DTD/svg11.dtd"><svg t="1641434339859" class="icon" viewBox="0 0 1024 1024" version="1.1" xmlns="http://www.w3.org/2000/svg" p-id="9990" xmlns:xlink="http://www.w3.org/1999/xlink" width="200" height="200"><defs><style type="text/css"></style></defs><path d="M512.129 943.767c-170.31 0-298.838-121.367-298.838-282.524 0-114.999 61.677-212.888 119.376-307.194 50.933-79.585 99.082-157.18 101.072-234.773a20.689 20.689 0 0 1 11.937-17.508 19.5 19.5 0 0 1 21.091 3.183c13.927 11.938 342.21 296.452 342.21 557.089 1.99 160.359-126.538 281.727-296.848 281.727zM476.728 208.66a577.387 577.387 0 0 1-91.692 190.464c-49.917 80.009-103.374 162.493-103.374 254.539 1.391 120.824 100.925 224.186 221.748 222.793 3.061-0.036 9.343 0.164 12.399 0 120.66 6.457 220.031-92.955 226.491-213.615 0.164-3.056 0.263-6.118 0.299-9.178-0.001-177.01-195.068-378.092-265.871-445.003z" p-id="9991"></path><path d="M478.588 807C414.949 771.998 381.76 733.521 366 702c-17.519-35.035-18.575-68.838-18.758-71.846l69.204-4.191s-0.005-0.139-0.027-0.409c0.016 0.181 0.849 25.867 13.582 49.446 27 50 44.71 50.742 82 71.25L478.588 807z" p-id="9992"></path></svg>