<?xml version="1.0" standalone="no"?><!DOCTYPE svg PUBLIC "-//W3C//DTD SVG 1.1//EN" "http://www.w3.org/Graphics/SVG/1.1/DTD/svg11.dtd"><svg t="1641434333539" class="icon" viewBox="0 0 1024 1024" version="1.1" xmlns="http://www.w3.org/2000/svg" p-id="9703" xmlns:xlink="http://www.w3.org/1999/xlink" width="200" height="200"><defs><style type="text/css"></style></defs><path d="M513.353 958.709c-176.534 0-334.687-105.313-410.481-281.511C27.025 500.909 54.763 251.98 294.905 122.034c109.627-59.303 243.322-73.059 357.75-36.844 110.23 34.922 198.203 113.177 254.435 226.302 65.564 131.884 68.637 278.715 8.426 402.819-58.38 120.336-170.709 205.825-308.216 234.562-31.641 6.613-63.079 9.836-93.947 9.836z m6.915-824.773c-66.051 0-133.394 16.517-192.63 48.569C124.364 292.492 100 496.569 166.034 650.04c76.954 178.866 244.708 269.794 427.199 231.522 116.491-24.339 211.414-96.231 260.428-197.264 50.843-104.801 47.872-229.525-8.142-342.207-47.738-96.03-121.61-162.198-213.63-191.355-35.566-11.261-73.367-16.8-111.621-16.8z" p-id="9704"></path><path d="M690.394 678c-53.632 0-107.915-33.339-141.667-87.007-23.025-36.614-33.686-78.322-30.018-117.443 3.926-41.876 23.525-75.905 55.189-95.817l0.151-0.095c18.021-11.173 39.229-17.079 61.328-17.079 53.667 0 107.939 33.285 141.638 86.865 23.025 36.614 33.686 78.324 30.019 117.445-3.927 41.876-23.525 75.905-55.187 95.817C733.836 672.014 712.586 678 690.394 678zM603.64 425.182c-16.554 10.445-26.914 29.475-29.176 53.595-2.522 26.909 5.173 56.174 21.668 82.404C619.367 598.127 656.367 622 690.394 622c11.797 0 22.442-2.933 31.641-8.718 16.594-10.436 26.979-29.486 29.244-53.64 2.522-26.91-5.172-56.175-21.667-82.405-23.183-36.86-60.171-60.678-94.233-60.678-11.798 0-22.476 2.901-31.739 8.623zM475.684 804.937c-16.644 0-33.449-3.111-49.949-9.248-26.685-9.925-49.301-26.86-63.684-47.687-16.234-23.507-20.57-50.364-11.896-73.685 11.888-31.962 45.266-51.816 87.108-51.816 16.533 0 33.182 3.074 49.485 9.138 26.71 9.934 49.33 26.887 63.694 47.737 16.182 23.488 20.501 50.345 11.858 73.709-11.631 31.988-44.806 51.852-86.616 51.852z m-38.421-126.436c-17.296 0-31.209 6.164-34.622 15.338-5.168 13.897 11.958 37.96 42.615 49.362 10.088 3.752 20.61 5.735 30.428 5.735 17.087 0 30.75-6.035 33.998-15.016l0.088-0.241c3.076-8.269-2.089-17.667-5.442-22.534-7.783-11.298-21.306-21.146-37.101-27.021-9.895-3.678-20.256-5.623-29.964-5.623z m-85.162-210.566c-22.748 0-42.521-7.749-57.18-22.408-18.251-18.25-25.868-45.464-20.896-74.663 4.493-26.39 18.693-52.648 39.984-73.94 26.273-26.275 59.469-41.345 91.073-41.345 22.778 0 42.593 7.775 57.303 22.484 18.235 18.236 25.863 45.429 20.93 74.608-4.46 26.372-18.591 52.57-39.791 73.77-26.371 26.37-59.693 41.494-91.423 41.494z m52.981-161.356c-17.911 0-38.476 9.872-55.01 26.407-13.684 13.683-23.076 30.609-25.771 46.438-1.27 7.455-2.089 21.27 6.683 30.041 6.174 6.175 14.892 7.471 21.117 7.471 18.036 0 38.731-9.928 55.36-26.557 13.578-13.578 22.897-30.42 25.567-46.21 1.26-7.455 2.065-21.271-6.706-30.043-6.236-6.238-14.993-7.547-21.24-7.547zM275.113 631.735a46.393 46.393 0 0 1-8.245-0.755c-23.267-4.303-39.147-25.415-42.802-44.042-3.803-19.303 4.529-36.286 22.26-45.417 12.572-6.468 27.216-6.73 40.198-0.813 19.968 9.149 31.143 30.552 31.868 46.963 0.434 10.109-2.525 19.442-8.561 27.001-8.733 10.991-21.319 17.063-34.718 17.063z m342.018-320.601a39.062 39.062 0 0 1-6.965-0.638c-19.648-3.633-33.063-21.464-36.15-37.195-3.211-16.302 3.826-30.646 18.803-38.357 10.617-5.463 22.984-5.684 33.95-0.685 16.862 7.727 26.299 25.802 26.912 39.662 0.368 8.538-2.132 16.42-7.229 22.804-7.377 9.281-18.009 14.409-29.321 14.409z m0 0" p-id="9705"></path></svg>