<?xml version="1.0" standalone="no"?><!DOCTYPE svg PUBLIC "-//W3C//DTD SVG 1.1//EN" "http://www.w3.org/Graphics/SVG/1.1/DTD/svg11.dtd"><svg t="1641434291970" class="icon" viewBox="0 0 1024 1024" version="1.1" xmlns="http://www.w3.org/2000/svg" p-id="8844" xmlns:xlink="http://www.w3.org/1999/xlink" width="200" height="200"><defs><style type="text/css"></style></defs><path d="M878.027 705.642c-0.359-78.521-67.33-142.424-149.611-142.424h-9.603c-82.302-0.205-149.254 63.798-149.665 143.021v101.537c0 43.283-36.799 78.446-82.012 78.446h-9.641c-45.293 0-82.052-35.163-82.052-78.446V631.952c101.074-15.668 171.22-56.287 213.834-123.665 40.802-64.513 50.764-144.313 60.398-221.486 1.51-12.1 3.072-24.612 4.726-36.827 8.228-60.798-14.036-95.346-34.163-113.622-26.56-24.118-65.635-35.931-116.12-35.137a306.51 306.51 0 0 0-6.316 0.167c-9.708-13.454-25.51-22.22-43.368-22.22-29.522 0-53.457 23.935-53.457 53.458 0 29.524 23.935 53.456 53.457 53.456 14.571 0 27.774-5.837 37.417-15.291 28.452-1.95 63.878 0.127 82.057 16.698 4.254 3.877 17.199 15.678 12.116 53.236-1.701 12.567-3.285 25.259-4.817 37.533-18.424 147.581-33.037 264.628-234.865 288.039-201.828-23.411-216.441-140.458-234.865-288.039-1.532-12.274-3.117-24.966-4.818-37.534-5.083-37.558 7.862-49.358 12.115-53.236 15.616-14.236 43.962-17.775 69.68-17.254 9.688 9.783 23.125 15.847 37.981 15.847 14.764 0 28.131-5.985 37.805-15.663 6.72-4.692 11.805-11.777 13.828-20.383 0.599-2.547 0.888-5.093 0.911-7.604 0.59-3.181 0.913-6.454 0.913-9.806 0-29.523-23.935-53.458-53.457-53.458-17.77 0-33.505 8.678-43.225 22.02-47.906 0.098-85.154 11.912-110.766 35.169-20.126 18.276-42.39 52.824-34.161 113.622 1.653 12.215 3.215 24.727 4.726 36.827 9.634 77.173 19.596 156.973 60.399 221.486 41.279 65.267 108.394 105.422 204.426 122.116v177.415c0 78.814 67.16 143.018 149.621 143.018h9.603c82.301 0.288 149.253-63.753 149.666-143.018V706.239c0-43.248 36.797-78.446 82.052-78.446h9.643c43.986 0 79.871 33.207 81.9 74.74C759.067 715.38 721 761.825 721 817c0 65.065 52.935 118 118 118s118-52.935 118-118c0-51.394-33.029-95.21-78.973-111.358zM839 873c-30.878 0-56-25.122-56-56s25.122-56 56-56 56 25.122 56 56-25.122 56-56 56z" p-id="8845"></path></svg>