<?xml version="1.0" standalone="no"?><!DOCTYPE svg PUBLIC "-//W3C//DTD SVG 1.1//EN" "http://www.w3.org/Graphics/SVG/1.1/DTD/svg11.dtd"><svg t="1641434325442" class="icon" viewBox="0 0 1024 1024" version="1.1" xmlns="http://www.w3.org/2000/svg" p-id="9416" xmlns:xlink="http://www.w3.org/1999/xlink" width="200" height="200"><defs><style type="text/css"></style></defs><path d="M101.946 547.056c-20.199-0.204-36.74 16.005-36.944 36.204-0.002 0.247-0.002 0.493 0 0.74v196.216c-0.004 20.404 16.534 36.947 36.938 36.951 20.403 0.003 36.947-16.534 36.95-36.938V584c0.205-20.2-16.005-36.74-36.204-36.944a30.423 30.423 0 0 0-0.74 0z m495.263-60.577c-20.199-0.204-36.74 16.005-36.944 36.204-0.002 0.247-0.002 0.493 0 0.74v101.08H266.451v-101.08c0-20.403-16.54-36.944-36.943-36.944-20.404 0-36.944 16.541-36.944 36.944v316.632c0 20.404 16.54 36.944 36.944 36.944 20.403 0 36.943-16.54 36.943-36.944v-141.6h293.094v141.6c0 20.404 16.54 36.944 36.944 36.944 20.403 0 36.943-16.54 36.943-36.944V523.424c0.292-20.11-15.773-36.649-35.884-36.94-0.112-0.003-0.226-0.004-0.339-0.005z m128.488 60.577c-20.199-0.204-36.74 16.005-36.944 36.204-0.003 0.247-0.003 0.493 0 0.74v196.216c0 20.404 16.54 36.944 36.944 36.944 20.403 0 36.943-16.54 36.943-36.944V584c-0.061-20.378-16.565-36.883-36.943-36.944z m-426.642-76.112c20.199 0.204 36.74-16.005 36.944-36.205a45.51 45.51 0 0 0 0-0.739V235.786c0-20.404-16.54-36.944-36.944-36.944-20.403 0-36.943 16.541-36.943 36.944v198.229c-0.195 20.2 16.021 36.733 36.22 36.929 0.24 0.002 0.481 0.002 0.723 0z" p-id="9417"></path><path d="M795.118 139.002c-20.199-0.204-36.74 16.005-36.944 36.204-0.002 0.247-0.002 0.493 0 0.74v101.51H465.08v-101.51c0-20.403-16.54-36.944-36.943-36.944-20.404 0-36.944 16.541-36.944 36.944v318.646c0 20.403 16.54 36.944 36.944 36.944 20.403 0 36.943-16.541 36.943-36.944V351.408h293.094v143.184c0 20.403 16.541 36.944 36.944 36.944s36.943-16.541 36.943-36.944V175.946c0.205-20.199-16.005-36.74-36.204-36.944a45.51 45.51 0 0 0-0.739 0z m126.936 60.576c-20.199-0.205-36.739 16.005-36.943 36.204-0.003 0.247-0.003 0.493 0 0.74v198.23c0 20.403 16.54 36.944 36.943 36.944 20.404 0 36.944-16.541 36.944-36.944v-198.23c0.204-20.199-16.005-36.74-36.204-36.944a30.423 30.423 0 0 0-0.74 0z" p-id="9418"></path></svg>