<?xml version="1.0" standalone="no"?><!DOCTYPE svg PUBLIC "-//W3C//DTD SVG 1.1//EN" "http://www.w3.org/Graphics/SVG/1.1/DTD/svg11.dtd"><svg t="1641434356191" class="icon" viewBox="0 0 1024 1024" version="1.1" xmlns="http://www.w3.org/2000/svg" p-id="10851" xmlns:xlink="http://www.w3.org/1999/xlink" width="200" height="200"><defs><style type="text/css"></style></defs><path d="M225.186 941.319a97.029 97.029 0 0 1-37.2-60.327 95.956 95.956 0 0 1 13.71-69.273l41.384-64.341c4.336-6.77 6.727-14.67 6.92-22.849 1.409-62.228 8.883-113.03 22.251-150.999a94.817 94.817 0 0 1 54.988-56.802 97.8 97.8 0 0 1 80.848 4.42c29.939 15.588 54.196 18.279 69.273 17.788a97.574 97.574 0 0 1 61.672 19.561l2.072 1.56a95.671 95.671 0 0 1 37.498 62.291c2.989 19.752 12.643 37.969 28.679 54.155a95.459 95.459 0 0 1 27.163 79.289 96.164 96.164 0 0 1-46.34 71.239c-40.083 24.002-87.34 35.619-105.768 39.505-6.621 1.366-13.604 1.922-22.038 1.708-43.266-1.132-79.952 31.349-103.1 58.81-32.888 38.994-90.863 45.271-131.993 14.264l-0.019 0.001z m272.478-327.208a39.9 39.9 0 0 0-25.203-7.986c-19.256 0.634-49.758-2.572-85.826-21.346a40.413 40.413 0 0 0-33.4-1.861c-10.596 4.146-18.486 12.285-22.207 22.881-10.368 29.446-16.183 70.218-17.337 121.145a86.649 86.649 0 0 1-13.685 44.957l-37.202 57.855c-11.112 17.275-6.891 40.58 9.617 53.019 16.834 12.669 40.503 10.173 53.881-5.702 39.39-46.702 84.347-70.775 129.994-69.584 3.781 0.096 6.585-0.077 8.811-0.538 14.265-2.995 50.64-11.901 80.527-29.81 10.673-6.373 17.661-17.084 19.159-29.408a38.595 38.595 0 0 0-10.942-32.057c-21.691-21.884-34.86-47.125-39.082-75.074a39.17 39.17 0 0 0-15.242-25.09l-1.863-1.401zM74.05 430.671l143.887 5.876-2.815 68.944-143.887-5.875z m81.392-176.668l111.472 91.168-43.684 53.413-111.472-91.167z m203.242-73.341l9.735 143.67-68.841 4.665-9.735-143.67z" p-id="10852"></path><path d="M713.796 667.186c-34.129 0.001-67.353-16.995-89.309-46.475-27.524-36.955-31.575-85.514-10.837-129.893 10.305-22.053 13.657-35.304 14.669-42.483-3.007 0.52-6.529 1.432-9.89 2.774-10.81 4.319-28.948 14.442-46.488 24.232-24.912 13.903-46.427 25.911-62.188 30.708-18.142 5.521-37.925 3.759-57.216-5.093-13.63-6.255-26.504-15.938-35.32-26.566-39.893-48.087-36.586-90.258-26.788-117.167 11.264-30.933 37.712-59.146 76.485-81.592 30.165-17.462 67.741-31.163 103.092-37.59 41.775-7.596 59.023-12.609 65.511-14.876 0.224-0.202 0.451-0.402 0.681-0.599 14.048-12.042 35.196-10.414 47.237 3.634 7.895 9.211 10.256 22.099 6.16 33.633-6.494 18.291-25.11 24.358-35.112 27.618-15.328 4.996-39.718 10.551-72.491 16.509-53.095 9.654-115.717 40.791-128.606 76.188-2.06 5.656-8.326 22.867 15.397 51.464 4.312 5.197 15.877 12.043 21.463 10.34 8.889-2.705 31.153-15.131 49.043-25.116 20.29-11.324 39.455-22.02 54.281-27.944 26.835-10.723 63.544-13.679 86.085 10.185 8.577 9.081 18.251 25.728 15.629 53.469-1.741 18.422-8.589 40.219-20.935 66.638-10.275 21.99-8.864 44.408 3.872 61.508 10.401 13.966 26.01 21.292 40.724 19.119 19.294-2.85 36.181-21.742 47.55-53.197 8.241-22.803 11.923-65.972 15.483-107.719 5.136-60.223 9.987-117.105 29.578-148.591 15.094-24.257 18.635-40.018 22.384-56.705 2.424-10.79 4.931-21.947 10.165-34.433 1.359-3.242 2.836-6.295 4.265-9.248 1.945-4.021 5.154-10.652 5.34-13.331-0.762-1.31-6.155-9.118-30.856-19.657-4.912-2.096-8.629-3.383-11.354-4.174a347.76 347.76 0 0 0-1.498 4.718c-4.852 15.541-12.183 39.026-35.419 54.517-15.395 10.263-36.193 6.102-46.456-9.291-10.263-15.395-6.103-36.193 9.291-46.456 3.51-2.34 6.111-10.674 8.628-18.734 4.627-14.824 11.62-37.226 34.675-47.868 23.746-10.962 50.426-2.018 68.427 5.663 36.596 15.614 58.645 34.575 67.407 57.966 10.464 27.931-1.014 51.653-7.872 65.827-1.092 2.256-2.123 4.388-2.787 5.972-2.949 7.034-4.553 14.174-6.584 23.214-4.356 19.389-9.777 43.521-30.867 77.414-2.47 3.969-7.271 14.86-11.678 43.2-3.486 22.42-5.796 49.5-8.029 75.688-4.109 48.188-7.991 93.704-19.231 124.801-27.182 75.203-74.802 92.866-100.768 96.702a102.166 102.166 0 0 1-14.943 1.097z m-86.442-405.633z" p-id="10853"></path></svg>