<?xml version="1.0" standalone="no"?><!DOCTYPE svg PUBLIC "-//W3C//DTD SVG 1.1//EN" "http://www.w3.org/Graphics/SVG/1.1/DTD/svg11.dtd"><svg t="1641434321354" class="icon" viewBox="0 0 1024 1024" version="1.1" xmlns="http://www.w3.org/2000/svg" p-id="9272" xmlns:xlink="http://www.w3.org/1999/xlink" width="200" height="200"><defs><style type="text/css"></style></defs><path d="M253.922 958.709c-88.008 0-159.609-71.594-159.609-159.609s71.602-159.608 159.609-159.608c88.016 0 159.609 71.593 159.609 159.608s-71.593 159.609-159.609 159.609z m0-249.147c-49.372 0-89.539 40.168-89.539 89.538s40.168 89.538 89.539 89.538 89.539-40.168 89.539-89.538-40.168-89.538-89.539-89.538z" p-id="9273"></path><path d="M318.483 709.287a34.821 34.821 0 0 1-20.836-6.894c-15.55-11.531-18.801-33.479-7.271-49.013l425.9-573.926c11.53-15.524 33.496-18.81 49.013-7.253 15.55 11.531 18.801 33.471 7.271 49.013l-425.9 573.909c-6.878 9.272-17.45 14.164-28.177 14.164z m388.949 249.422c-88.017 0-159.608-71.594-159.608-159.609s71.593-159.608 159.608-159.608S867.041 711.083 867.041 799.1s-71.594 159.609-159.609 159.609z m0-249.147c-49.371 0-89.538 40.168-89.538 89.538s40.168 89.538 89.538 89.538c49.371 0 89.539-40.168 89.539-89.538s-40.168-89.538-89.539-89.538z" p-id="9274"></path><path d="M642.869 709.287c-10.726 0-21.298-4.893-28.175-14.164l-425.899-573.91c-11.531-15.542-8.28-37.482 7.271-49.013 15.533-11.556 37.499-8.271 49.012 7.253L670.977 653.38c11.531 15.534 8.279 37.481-7.271 49.013a34.826 34.826 0 0 1-20.837 6.894z m228.266-62.07c-44.088-67.234-125.108-86.203-179.701-83.136l-5.845-74.037c109.788-6.181 198.96 34.414 251.23 114.091l-65.684 43.082z" p-id="9275"></path></svg>