<?xml version="1.0" standalone="no"?><!DOCTYPE svg PUBLIC "-//W3C//DTD SVG 1.1//EN" "http://www.w3.org/Graphics/SVG/1.1/DTD/svg11.dtd"><svg t="1641434297919" class="icon" viewBox="0 0 1024 1024" version="1.1" xmlns="http://www.w3.org/2000/svg" p-id="8986" xmlns:xlink="http://www.w3.org/1999/xlink" width="200" height="200"><defs><style type="text/css"></style></defs><path d="M791.909 946.271c-17.862-6.393-27.167-26.059-20.782-43.93 0.529-1.467 52.438-148.291 47.403-268.688-0.797-18.962 13.928-34.978 32.897-35.767 18.979-0.889 34.97 13.937 35.767 32.897 5.613 133.996-49.022 288.229-51.354 294.723-5.026 14.045-18.249 22.778-32.344 22.778-3.949 0-7.869-0.681-11.587-2.013z m-484.502 12.333a34.24 34.24 0 0 1-12.636-2.423c-9.38-3.717-229.481-94.103-229.481-370.425 0-152.235 80.107-254.71 127.862-302.248 21.311-21.226 50.004-44.878 75.309-57.496 7.585-51.414 18.643-121.319 18.643-121.319l67.892 10.74c-0.017 0.05-14.297 90.376-21.445 140.682-2.231 15.664-14.8 27.603-30.203 29.314-31.06 10.831-169.326 120.772-169.326 300.326 0 228.533 178.572 303.497 186.056 306.526 17.652 6.988 26.294 26.965 19.297 44.608-5.355 13.493-18.276 21.715-31.968 21.715z" p-id="8987"></path><path d="M532.148 865.946c-31.713 0-58.662-8.029-79.051-24.188-26.218-20.791-37.243-53.495-29.49-87.499 8.097-35.481 42.638-56.549 82.633-80.947 22.334-13.617 45.423-27.702 63.092-44.013l18.785-17.267c33.308-30.548 100.192-91.903 116.788-114.774-3.885-17.837-19.591-62.556-31.396-96.19-21.989-62.614-44.734-127.367-49.718-165.659-2.45-18.827 10.823-36.069 29.642-38.519 18.953-2.432 36.077 10.832 38.519 29.642 4.052 31.177 27.536 98.037 46.404 151.766 32.52 92.6 39.626 116.167 34.734 135.062-6.015 23.214-34.5 53.913-138.51 149.321l-18.634 17.124c-22.67 20.933-49.896 37.537-73.916 52.186-19.096 11.646-47.94 29.239-51.414 37.545-2.424 10.639 1.259 15.244 5.177 18.357 14.281 11.318 60.819 19.532 144.702-21.444 75.744-36.99 235.146-207.92 245.372-238.987 0.562-3.531 1.367-6.828 2.29-10.353 2.594-9.858 7.98-30.372-32.124-157.84-21.688-68.915-50.775-151.077-66.877-179.284-22.762-39.903-45.365-45.859-56.816-45.859-18.979 0-34.365-15.388-34.365-34.366s15.387-34.365 34.365-34.365c26.354 0 76.542 10.462 116.512 80.527 25.664 44.962 65.098 168.428 72.74 192.726 42.587 135.364 40.163 168.814 33.048 195.922-0.327 1.233-0.688 2.375-0.881 3.607-9.388 59.535-203.414 251.12-283.094 290.041-51.37 25.076-98.706 37.728-138.517 37.728zM272 615.347l-74.184-0.05c0.068-99.32 41.229-187.155 112.93-240.985L355 434c-50.641 38.005-82.95 108.236-83 181.347z" p-id="8988"></path></svg>