<?xml version="1.0" standalone="no"?><!DOCTYPE svg PUBLIC "-//W3C//DTD SVG 1.1//EN" "http://www.w3.org/Graphics/SVG/1.1/DTD/svg11.dtd"><svg t="1641434286654" class="icon" viewBox="0 0 1024 1024" version="1.1" xmlns="http://www.w3.org/2000/svg" p-id="8701" xmlns:xlink="http://www.w3.org/1999/xlink" width="200" height="200"><defs><style type="text/css"></style></defs><path d="M632.721 947.028h-241.43c-37.97 0-68.86-30.89-68.86-68.843v-25.068C182.347 786.254 80.273 635.363 65.558 470.101c-1.695-18.952 4.748-37.937 17.677-52.073 13.087-14.296 31.686-22.5 51.041-22.5h755.463c19.346 0 37.937 8.196 51.008 22.482 12.936 14.136 19.38 33.122 17.701 52.09-14.715 165.263-116.813 316.153-256.883 383.017v25.068c0 37.953-30.89 68.843-68.843 68.843zM134.274 464.253c12.76 146 109.666 283.711 235.423 334.635a34.36 34.36 0 0 1 21.46 31.846v47.451l241.563 0.118 0.118-47.568a34.362 34.362 0 0 1 21.46-31.846c125.74-50.924 222.671-188.635 235.69-334.879l-0.25 0.244H134.273z" p-id="8702"></path><path d="M391.526 631.077c-29.55-20.273-60.679-58.91-79.039-97.026h-93.403l8.43 20.581c23.574 57.534 68.86 115.337 115.388 147.284l35.42 24.296 48.607-70.823-35.403-24.312zM736.196 455a34.11 34.11 0 0 1-15.537-3.741c-16.93-8.6-23.658-29.287-15.067-46.209l81.41-160.094c17.769-32.064 7.4-73.18-22.047-90.882-13.658-8.213-29.648-10.453-44.983-6.342-16.074 4.304-29.515 14.95-37.853 29.975L551.647 430.883c-8.675 16.87-29.413 23.515-46.276 14.807-16.88-8.691-23.507-29.421-14.799-46.284L621.53 145.297c17.952-32.408 46.426-54.79 80.672-63.96 33.557-8.943 68.39-4.053 98.155 13.825 61.344 36.863 82.569 118.526 47.333 182.041l-80.823 159.005C760.793 448.128 748.73 455 736.197 455z" p-id="8703"></path></svg>