<?xml version="1.0" standalone="no"?><!DOCTYPE svg PUBLIC "-//W3C//DTD SVG 1.1//EN" "http://www.w3.org/Graphics/SVG/1.1/DTD/svg11.dtd"><svg t="1641434364348" class="icon" viewBox="0 0 1024 1024" version="1.1" xmlns="http://www.w3.org/2000/svg" p-id="11279" xmlns:xlink="http://www.w3.org/1999/xlink" width="200" height="200"><defs><style type="text/css"></style></defs><path d="M521.317 140.482c12.053 0 22.497 8.436 25.108 20.086 4.017 18.682 18.882 33.344 37.562 37.361 37.965 7.834 73.92 22.497 106.662 42.986 7.832 4.82 16.672 7.432 25.91 7.432 8.236 0 16.473-2.008 23.904-6.227 3.816-2.209 8.035-3.215 12.654-3.215 14.061 0 25.711 11.45 25.711 25.712 0 3.816-0.803 7.633-2.611 11.047-7.834 16.07-6.227 35.152 4.42 49.614 24.305 33.746 41.78 71.107 51.823 111.482 4.42 18.078 18.882 31.938 36.96 35.754 11.65 2.611 20.287 13.057 20.287 25.108 0 11.249-7.031 21.091-17.676 24.305-17.877 5.625-30.935 20.891-33.546 39.37-6.829 46.199-23.903 91.395-49.614 130.363a48.653 48.653 0 0 0-3.415 47.404c1.608 3.416 2.411 7.232 2.411 10.848 0 14.061-11.449 25.711-25.711 25.711-3.414 0-6.829-0.603-10.044-2.009-15.667-6.628-33.544-4.821-47.403 5.021-36.761 25.912-77.736 43.789-121.727 52.827-18.078 3.816-32.541 17.275-37.161 35.152-3.013 11.25-13.256 19.083-24.905 19.083-11.449 0-21.695-7.633-24.709-18.681-5.021-17.878-19.684-31.135-37.963-34.549-48.008-8.839-94.206-29.126-133.375-58.252-8.438-6.228-18.481-9.643-29.127-9.643-9.039 0-17.878 2.611-25.51 7.232-4.018 2.41-8.637 3.816-13.459 3.816-14.059 0-25.709-11.45-25.709-25.711 0-5.625 1.806-11.048 5.422-15.668 12.053-15.869 13.459-37.361 3.214-54.436-21.694-36.357-35.754-75.928-41.981-117.709-2.812-19.082-16.672-34.75-35.352-39.77-11.25-3.015-18.883-13.258-18.883-24.708 0-12.453 9.24-23.301 21.292-25.31 19.083-3.213 34.349-17.475 39.17-36.156 9.038-36.356 24.304-70.504 45.196-101.84 11.246-16.672 10.846-38.768-0.804-55.238-3.015-4.419-4.823-9.44-4.823-14.663 0-14.061 11.451-25.712 25.713-25.712 5.223 0 10.646 1.809 14.863 4.821 8.235 6.026 18.279 9.04 28.322 9.04 9.441 0 18.883-2.813 26.916-8.035 36.156-23.703 75.928-39.973 118.311-48.008 18.883-3.615 33.947-17.877 38.366-36.758 3.015-10.841 13.462-19.277 25.311-19.277M521.563 70c-36.977 0-68.039 25.779-76.068 60.22-51.133 9.72-99.73 29.583-143.258 58.107-13.104-9.509-29.16-14.79-45.643-14.79-43.104 0-78.18 35.074-78.18 78.18 0 16.27 5.07 31.906 14.58 45.219-25.145 37.61-43.74 79.236-54.727 122.975-36.979 6.128-65.08 38.246-65.08 76.913 0 35.921 24.51 66.349 57.684 75.435 7.396 50.287 24.723 98.676 50.713 142.414-10.354 13.523-16.271 30.215-16.271 47.541 0 43.105 35.076 78.182 78.181 78.182 14.579 0 28.737-4.015 40.993-11.621 47.752 35.498 103.113 59.586 161.643 70.363 9.297 32.751 39.514 56.838 75.223 56.838 36.131 0 66.77-24.723 75.645-58.107 53.037-10.986 103.113-32.75 147.275-63.812 9.721 4.226 20.073 6.339 30.639 6.339 43.105 0 78.18-35.074 78.18-78.182a78.34 78.34 0 0 0-7.396-33.172 389.75 389.75 0 0 0 60.009-157.841c31.694-9.931 54.303-39.301 54.303-74.377 0-37.399-26.412-68.672-61.699-76.279-12.043-48.598-33.385-94.239-62.756-134.808 5.072-10.566 7.819-22.186 7.819-34.02 0-43.105-35.075-78.18-78.181-78.18h-0.211c-13.313 0-26.625 3.381-38.244 10.142-39.514-24.934-83.252-42.472-129.105-51.979-7.186-35.288-38.668-61.7-76.068-61.7z" p-id="11280"></path><path d="M638.907 678c-61.742 0-124.233-38.381-163.088-100.164-26.507-42.149-38.779-90.166-34.557-135.201 4.52-48.21 27.083-87.383 63.535-110.305l0.174-0.111c20.746-12.861 45.16-19.66 70.602-19.66 61.782 0 124.261 38.318 163.055 100 26.507 42.15 38.779 90.168 34.558 135.204-4.521 48.208-27.083 87.382-63.531 110.306-20.737 13.039-45.2 19.931-70.748 19.931z m-99.872-291.047c-19.057 12.025-30.983 33.932-33.587 61.699-2.904 30.979 5.955 64.668 24.944 94.863 26.749 42.533 69.344 70.017 108.515 70.017 13.581 0 25.836-3.377 36.425-10.037 19.103-12.013 31.059-33.944 33.666-61.751 2.904-30.978-5.954-64.668-24.943-94.865-26.688-42.433-69.27-69.853-108.482-69.853-13.581 0-25.873 3.339-36.538 9.927z m-206.654 253.25a65.449 65.449 0 0 1-11.618-1.064c-32.792-6.064-55.176-35.818-60.327-62.072-5.359-27.206 6.385-51.141 31.374-64.012 17.719-9.116 38.359-9.484 56.655-1.144 28.144 12.894 43.892 43.059 44.916 66.188 0.612 14.248-3.56 27.402-12.066 38.055-12.31 15.49-30.049 24.049-48.934 24.049z m0 0" p-id="11281"></path></svg>