<?xml version="1.0" standalone="no"?><!DOCTYPE svg PUBLIC "-//W3C//DTD SVG 1.1//EN" "http://www.w3.org/Graphics/SVG/1.1/DTD/svg11.dtd"><svg t="1641434348388" class="icon" viewBox="0 0 1024 1024" version="1.1" xmlns="http://www.w3.org/2000/svg" p-id="10420" xmlns:xlink="http://www.w3.org/1999/xlink" width="200" height="200"><defs><style type="text/css"></style></defs><path d="M512.004 744.17c-99.479 0-180.399-80.922-180.399-180.392s80.922-180.4 180.399-180.4 180.399 80.929 180.399 180.399S611.482 744.17 512.004 744.17z m0-287.888c-59.265 0-107.496 48.223-107.496 107.496 0 59.272 48.231 107.486 107.496 107.486 59.264 0 107.496-48.214 107.496-107.486 0-59.273-48.232-107.496-107.496-107.496z" p-id="10421"></path><path d="M512.004 924.569c-268.671 0-446.714-251.842-446.714-353.912v-13.759c0-102.079 178.043-353.921 446.714-353.921 271.54 0 445.833 248.663 446.705 353.636v14.044c-0.872 105.258-175.165 353.912-446.705 353.912z m0-652.868c-236.021 0-377.99 226.163-377.99 285.197v13.759c0 59.034 141.969 285.189 377.99 285.189 238.873 0 377.479-224.359 377.982-285.475v-13.305c-0.672-61.283-139.261-285.365-377.982-285.365z" p-id="10422"></path><path d="M511.987 271.701c-18.976 0-34.361-15.386-34.361-34.362V133.792c0-18.976 15.386-34.361 34.361-34.361 18.977 0 34.362 15.385 34.362 34.361v103.547c0.001 18.976-15.385 34.362-34.362 34.362z m188.74 44.613a34.192 34.192 0 0 1-17.147-4.614c-16.442-9.488-22.063-30.503-12.584-46.937l51.778-89.671c9.496-16.442 30.452-22.097 46.945-12.575 16.442 9.488 22.063 30.502 12.584 46.937l-51.778 89.671c-6.377 11.024-17.921 17.189-29.798 17.189z m-377.461 0c-11.879 0-23.423-6.167-29.799-17.19l-51.761-89.671c-9.48-16.442-3.843-37.457 12.583-46.937 16.476-9.522 37.433-3.867 46.945 12.575l51.762 89.671c9.479 16.442 3.842 37.457-12.584 46.937a34.185 34.185 0 0 1-17.146 4.615z" p-id="10423"></path></svg>