<?xml version="1.0" standalone="no"?><!DOCTYPE svg PUBLIC "-//W3C//DTD SVG 1.1//EN" "http://www.w3.org/Graphics/SVG/1.1/DTD/svg11.dtd"><svg t="1642488202337" class="icon" viewBox="0 0 1024 1024" version="1.1" xmlns="http://www.w3.org/2000/svg" p-id="7967" xmlns:xlink="http://www.w3.org/1999/xlink" width="200" height="200"><defs><style type="text/css"></style></defs><path d="M512 54.408871c-252.304475 0-457.570851 205.266376-457.570851 457.570851 0 252.304475 205.266376 457.570851 457.570851 457.570851 252.304475 0 457.570851-205.266376 457.570851-457.570851C969.570851 259.675248 764.304475 54.408871 512 54.408871zM763.011802 304.062099 614.11105 452.993267c-14.92404 14.92404-4.349465 40.437861 16.754059 40.437861l128.420752 0 0 75.218376c0 13.083881-10.60499 23.688871-23.688871 23.688871L585.150099 592.338376c-13.083881 0-23.688871 10.60499-23.688871 23.688871s10.60499 23.688871 23.688871 23.688871l150.441822 0c13.083881 0 23.688871 10.60499 23.688871 23.688871l0 51.529505c0 13.083881-10.60499 23.688871-23.688871 23.688871L585.150099 738.623366c-13.083881 0-23.688871 10.60499-23.688871 23.688871l0 53.602851c0 13.083881-10.60499 23.688871-23.688871 23.688871L486.237782 839.60396c-13.083881 0-23.688871-10.60499-23.688871-23.688871L462.548911 762.322376c0-13.083881-10.60499-23.688871-23.688871-23.688871L288.408079 738.633505c-13.083881 0-23.688871-10.60499-23.688871-23.688871l0-51.529505c0-13.083881 10.60499-23.688871 23.688871-23.688871l150.446891 0c13.083881 0 23.688871-10.60499 23.688871-23.688871s-10.60499-23.688871-23.688871-23.688871L288.408079 592.348515c-13.083881 0-23.688871-10.60499-23.688871-23.688871L264.719208 517.12c0-13.083881 10.60499-23.688871 23.688871-23.688871l104.731881 0c21.103525 0 31.67303-25.513822 16.754059-40.437861L260.988198 304.062099c-9.251485-9.251485-9.251485-24.251564 0-33.50305l36.42804-36.42804c9.251485-9.251485 24.251564-9.251485 33.50305 0l164.321584 164.357069c9.251485 9.251485 24.256634 9.256554 33.508119 0l164.321584-164.357069c9.251485-9.251485 24.251564-9.251485 33.50305 0l36.42804 36.42804C772.263287 279.810535 772.263287 294.810614 763.011802 304.062099z" p-id="7968"></path><path d="M512 5.069307C231.971485 5.069307 5.069307 232.00697 5.069307 511.979723c0 279.967683 226.902178 506.905347 506.930693 506.905347 279.932198 0 506.930693-226.937663 506.930693-506.905347C1018.930693 232.00697 791.932198 5.069307 512 5.069307zM842.554297 842.52895c-42.93196 42.93196-92.925465 76.637782-148.591525 100.179644-57.63295 24.378297-118.85497 36.737267-181.962772 36.737267s-124.324752-12.35897-181.962772-36.737267c-55.666059-23.546931-105.659564-57.252752-148.591525-100.179644-42.93196-42.93196-76.637782-92.925465-100.179644-148.591525-24.378297-57.63295-36.737267-118.85497-36.737267-181.962772 0-63.107802 12.35897-124.324752 36.737267-181.962772 23.546931-55.666059 57.252752-105.659564 100.179644-148.591525 42.93196-42.93196 92.925465-76.637782 148.591525-100.179644C387.675248 56.867485 448.892198 44.508515 512 44.508515s124.329822 12.35897 181.962772 36.737267c55.666059 23.546931 105.659564 57.252752 148.591525 100.179644 42.93196 42.93196 76.632713 92.925465 100.179644 148.591525 24.378297 57.63802 36.737267 118.85497 36.737267 181.962772 0 63.107802-12.35897 124.324752-36.737267 181.962772C919.18701 749.608554 885.481188 799.602059 842.554297 842.52895z" p-id="7969"></path></svg>