<?xml version="1.0" standalone="no"?><!DOCTYPE svg PUBLIC "-//W3C//DTD SVG 1.1//EN" "http://www.w3.org/Graphics/SVG/1.1/DTD/svg11.dtd"><svg t="1640138617045" class="icon" viewBox="0 0 1024 1024" version="1.1" xmlns="http://www.w3.org/2000/svg" p-id="5708" xmlns:xlink="http://www.w3.org/1999/xlink" width="200" height="200"><defs><style type="text/css"></style></defs><path d="M976 240H48a48 48 0 0 0-48 48v448a48 48 0 0 0 48 48h160V544h608v240h160a48 48 0 0 0 48-48V288a48 48 0 0 0-48-48zM144 432a48 48 0 1 1 0-96 48 48 0 0 1 0 96zM768 47.504h-0.048v-0.048a47.776 47.776 0 0 0-8.32-26.512c-0.064-0.112-0.192-0.208-0.272-0.32a45.856 45.856 0 0 0-5.616-6.704l-0.128-0.096a47.488 47.488 0 0 0-8.976-6.8l-0.112-0.064-0.016-0.016a47.072 47.072 0 0 0-14.88-5.968c-2.224-0.448-4.528-0.544-6.832-0.688C721.872 0.224 720.976 0 720 0H304a48 48 0 0 0-48 48v144h512V47.504zM256 976a48 48 0 0 0 48 48h416a48 48 0 0 0 48-48V592H256v384z m96-288h320v48H352v-48z m0 96h320v48H352v-48z m0 96h320v48H352v-48z" fill="" p-id="5709"></path></svg>