<?xml version="1.0" standalone="no"?><!DOCTYPE svg PUBLIC "-//W3C//DTD SVG 1.1//EN" "http://www.w3.org/Graphics/SVG/1.1/DTD/svg11.dtd"><svg t="1640141827454" class="icon" viewBox="0 0 1024 1024" version="1.1" xmlns="http://www.w3.org/2000/svg" p-id="982" xmlns:xlink="http://www.w3.org/1999/xlink" width="200" height="200"><defs><style type="text/css"></style></defs><path d="M573.26138406 837.85471187c-1.08413565 1.62620348-2.1682713 5.42067824-2.1682713 5.42067826l-17.34617039 73.17915633s-1.08413565 7.58894955 2.16827129 10.84135648c3.79447477 3.25240695 11.38342432 3.25240695 11.38342432 3.25240695l73.17915633-17.34617038s4.3365426-1.08413565 7.04688173-2.16827131c2.1682713-1.08413565 4.87861043-3.79447477 4.87861043-3.79447477l253.68774193-253.68774194s5.42067824-4.87861043 5.96274606-9.75722084c0.54206782-4.87861043-4.3365426-10.8413565-4.3365426-10.84135649l-54.74885028-54.74885029s-3.79447477-4.3365426-10.29928867-4.3365426-10.8413565 5.42067824-10.8413565 5.42067824l-254.77187758 254.77187759c-0.54206782-1.08413565-2.71033912 2.1682713-3.79447477 3.79447477z" fill="#2C2C2C" p-id="983"></path><path d="M476.72945355 910.38371326l26.59746126-106.38984505s1.73461704-5.78205679 3.46923407-9.25129088c2.31282272-4.04743975 6.36026248-8.09487952 6.36026248-8.09487951l326.68620899-326.68620899s5.78205679-5.20385112 8.09487952-11.56411359c2.8910284-6.93846815 2.8910284-16.18975903 2.89102839-16.18975902v-268.86564103c0-34.1141351-27.75387263-62.44621339-62.4462134-62.44621341H236.77409649c-34.1141351 0-62.44621339 27.75387263-62.44621339 62.44621341v697.8942553c0 34.1141351 27.75387263 62.44621339 62.44621339 62.4462134h222.03098098s6.36026248-0.57820567 11.5641136-4.62564543c5.20385112-4.62564544 6.36026248-8.67308519 6.36026248-8.6730852zM333.91265068 266.26258615H694.13478908c16.18975903 0 29.48848966 13.29873064 29.48848966 29.48848967s-13.29873064 29.48848966-29.48848966 29.48848966H333.91265068c-16.18975903 0-29.48848966-13.29873064-29.48848966-29.48848966s13.29873064-29.48848966 29.48848966-29.48848967z m0 179.2437607H549.58336918c16.18975903 0 29.48848966 13.29873064 29.48848966 29.48848965s-12.72052494 29.48848966-29.48848966 29.48848966H333.91265068c-16.18975903 0-29.48848966-13.29873064-29.48848966-29.48848966s13.29873064-29.48848966 29.48848966-29.48848965z m-29.48848966 212.77969009c0-16.18975903 13.29873064-29.48848966 29.48848966-29.48848966h88.46546897c16.18975903 0 29.48848966 13.29873064 29.48848966 29.48848966s-13.29873064 29.48848966-29.48848966 29.48848967h-88.46546897c-16.18975903 0-29.48848966-13.29873064-29.48848966-29.48848967z" fill="#2C2C2C" p-id="984"></path></svg>